PathFileType	4	(X/Y/Z)	/tmp/tmpjnq7zxqp/Me/MarkerData/slow walking02_segment_0.trc
DataRate	CameraRate	NumFrames	NumMarkers	Units	OrigDataRate	OrigDataStartFrame	OrigNumFrames
100.093	100.093	8	39	m	100.093	403	1077
Frame#	Time	C7			CLAV			LANK			LASI			LBHD			LELB			LFHD			LFIN			LFRM			LHEE			LKNE			LPSI			LSHO			LTHI			LTIB			LTOE			LUPA			LWRA			LWRB			RANK			RASI			RBAK			RBHD			RELB			RFHD			RFIN			RFRM			RHEE			RKNE			RPSI			RSHO			RTHI			RTIB			RTOE			RUPA			RWRA			RWRB			STRN			T10		
		X1	Y1	Z1	X2	Y2	Z2	X3	Y3	Z3	X4	Y4	Z4	X5	Y5	Z5	X6	Y6	Z6	X7	Y7	Z7	X8	Y8	Z8	X9	Y9	Z9	X10	Y10	Z10	X11	Y11	Z11	X12	Y12	Z12	X13	Y13	Z13	X14	Y14	Z14	X15	Y15	Z15	X16	Y16	Z16	X17	Y17	Z17	X18	Y18	Z18	X19	Y19	Z19	X20	Y20	Z20	X21	Y21	Z21	X22	Y22	Z22	X23	Y23	Z23	X24	Y24	Z24	X25	Y25	Z25	X26	Y26	Z26	X27	Y27	Z27	X28	Y28	Z28	X29	Y29	Z29	X30	Y30	Z30	X31	Y31	Z31	X32	Y32	Z32	X33	Y33	Z33	X34	Y34	Z34	X35	Y35	Z35	X36	Y36	Z36	X37	Y37	Z37	X38	Y38	Z38	X39	Y39	Z39

404	4.02626	-0.248724	1.43835	0.0872863	-0.407312	1.35419	0.0763152	-0.0626438	0.104146	0.185293	-0.334303	0.965688	0.247821	-0.4224	1.5772	0.140691	-0.446762	1.09552	0.379881	-0.49925	1.61001	0.0378094	-0.691071	0.871565	0.346612	-0.528617	0.958357	0.366003	0.0114538	0.0776066	0.128673	-0.254042	0.454143	0.225546	-0.198432	0.977403	0.11246	-0.32968	1.42062	0.254975	-0.293902	0.639755	0.257041	-0.125418	0.240989	0.220726	-0.227199	0.0626312	0.13401	-0.390231	1.2676	0.348788	-0.621878	0.93417	0.300947	-0.596748	0.899393	0.359701	-0.569994	0.103368	-0.0569479	-0.345204	0.967022	-0.0690072	-0.18236	1.29937	-0.0220333	-0.310375	1.58354	0.0409756	-0.268425	1.0703	-0.183561	-0.397734	1.60706	-0.0438766	-0.292335	0.722855	-0.213684	-0.260489	0.982364	-0.194388	-0.50452	0.0502755	-0.000352684	-0.511215	0.504388	-0.0566826	-0.199443	0.969659	0.0493924	-0.310836	1.40968	-0.0906448	-0.41435	0.815953	-0.0944538	-0.500593	0.3777	-0.0881083	-0.731842	0.102097	0.000439234	-0.294169	1.16508	-0.170079	-0.306994	0.81895	-0.154663	-0.257818	0.814754	-0.208214	-0.438653	1.19559	0.0878015	-0.193288	1.20858	0.103144
405	4.03625	-0.248757	1.43777	0.0850524	-0.40775	1.354	0.0749344	-0.0562929	0.106246	0.18591	-0.334339	0.965181	0.246801	-0.421753	1.57723	0.139138	-0.443953	1.09434	0.378096	-0.499009	1.61003	0.0367448	-0.68465	0.866205	0.346135	-0.523622	0.955865	0.364893	0.0184442	0.0808793	0.129178	-0.253037	0.453902	0.225492	-0.199419	0.97698	0.109862	-0.329033	1.42038	0.253221	-0.293098	0.639686	0.256281	-0.121159	0.242538	0.220985	-0.219527	0.0625693	0.134135	-0.38886	1.26701	0.34719	-0.61648	0.92972	0.30007	-0.590927	0.895649	0.359202	-0.564915	0.10181	-0.0571105	-0.347725	0.966764	-0.0701794	-0.183364	1.29834	-0.0243101	-0.31036	1.58299	0.0386333	-0.272286	1.069	-0.184944	-0.398296	1.6066	-0.0456357	-0.299733	0.721839	-0.214064	-0.265188	0.980982	-0.195585	-0.49848	0.0513021	-0.000756259	-0.512989	0.504179	-0.0570947	-0.201053	0.969221	0.0467189	-0.311736	1.40897	-0.0924875	-0.417309	0.815828	-0.0952864	-0.500214	0.376914	-0.0883224	-0.726767	0.097028	0.000303715	-0.297092	1.16407	-0.171516	-0.312646	0.818117	-0.154866	-0.264205	0.813307	-0.208843	-0.439408	1.19546	0.0868952	-0.194208	1.20775	0.101062
406	4.04624	-0.248876	1.43731	0.0827215	-0.408253	1.35404	0.0735131	-0.0502774	0.108676	0.186442	-0.334522	0.96483	0.245792	-0.421079	1.57745	0.137619	-0.440933	1.09318	0.376222	-0.498985	1.61022	0.0357043	-0.677549	0.860555	0.345764	-0.518202	0.953358	0.363757	0.0253272	0.0846843	0.12967	-0.252398	0.45378	0.225396	-0.200944	0.976614	0.107086	-0.328395	1.42031	0.251433	-0.292709	0.6397	0.255554	-0.117129	0.244348	0.221227	-0.211849	0.062541	0.134192	-0.387403	1.26651	0.345523	-0.610614	0.925036	0.299315	-0.584574	0.891835	0.358723	-0.5601	0.100304	-0.0577778	-0.350546	0.9667	-0.0714066	-0.184487	1.29744	-0.0267619	-0.310423	1.58265	0.0362412	-0.276358	1.06785	-0.186386	-0.398945	1.6063	-0.0474139	-0.30743	0.721047	-0.214383	-0.27012	0.97976	-0.196853	-0.492197	0.0524656	-0.00142058	-0.514278	0.503919	-0.0576928	-0.20293	0.968914	0.043912	-0.312805	1.40844	-0.0944253	-0.420461	0.81584	-0.096083	-0.500083	0.376386	-0.0890661	-0.721583	0.0918684	0.000240246	-0.300329	1.16319	-0.173079	-0.318811	0.817535	-0.155176	-0.270902	0.812012	-0.209462	-0.440309	1.19556	0.0859533	-0.194823	1.20709	0.098867
407	4.05623	-0.249081	1.43695	0.0803292	-0.408789	1.35429	0.0720938	-0.0445379	0.111377	0.186971	-0.335375	0.964868	0.244097	-0.420368	1.57779	0.136186	-0.43765	1.09213	0.374349	-0.499183	1.6106	0.0346984	-0.669733	0.854641	0.345497	-0.51234	0.950838	0.362631	0.0318103	0.0886754	0.130063	-0.252237	0.453747	0.225314	-0.203001	0.976292	0.104204	-0.327708	1.42038	0.249594	-0.292792	0.639786	0.254819	-0.113278	0.246409	0.221578	-0.204131	0.0625064	0.134237	-0.385845	1.26613	0.343785	-0.604296	0.920221	0.298647	-0.577596	0.888133	0.358091	-0.555431	0.0989547	-0.0585934	-0.353633	0.966841	-0.0726856	-0.185711	1.29672	-0.0293752	-0.310547	1.58244	0.0337844	-0.280661	1.06689	-0.187838	-0.399699	1.60618	-0.0491812	-0.315532	0.72049	-0.214655	-0.275321	0.978713	-0.198114	-0.485579	0.0538356	-0.0020619	-0.515467	0.503759	-0.0583443	-0.204975	0.968759	0.0410877	-0.314088	1.40811	-0.0964765	-0.423718	0.815962	-0.0968332	-0.500449	0.376024	-0.0900879	-0.716335	0.0865167	0.000275288	-0.30374	1.16252	-0.174722	-0.325287	0.817058	-0.155407	-0.277903	0.81093	-0.21006	-0.441371	1.19592	0.0849637	-0.195568	1.20656	0.0965181
408	4.06622	-0.249355	1.43669	0.077861	-0.409338	1.3547	0.0706837	-0.0390462	0.114318	0.187512	-0.336323	0.964947	0.242336	-0.419605	1.57824	0.134743	-0.434252	1.09117	0.372315	-0.499289	1.61114	0.0338087	-0.661295	0.848465	0.345456	-0.505998	0.948344	0.361501	0.037948	0.0928766	0.130418	-0.252635	0.453759	0.225296	-0.204964	0.976117	0.101381	-0.327059	1.42056	0.247697	-0.29332	0.63995	0.25402	-0.109688	0.248707	0.221956	-0.196364	0.0624679	0.134275	-0.384213	1.26587	0.341993	-0.597505	0.915288	0.297992	-0.569543	0.884588	0.357162	-0.550563	0.0977926	-0.0592461	-0.356902	0.967173	-0.074024	-0.187141	1.29616	-0.0321639	-0.310679	1.58235	0.031288	-0.285168	1.06613	-0.189343	-0.400503	1.60623	-0.0509185	-0.324103	0.720117	-0.214791	-0.280846	0.977858	-0.199327	-0.479126	0.0550394	-0.00258764	-0.51691	0.503826	-0.0590465	-0.207144	0.968747	0.0383137	-0.31551	1.40796	-0.0985815	-0.426902	0.816151	-0.0975332	-0.501311	0.375698	-0.0911865	-0.711007	0.0812621	0.000402018	-0.307268	1.16207	-0.176376	-0.332154	0.816857	-0.155636	-0.285253	0.81008	-0.21063	-0.442563	1.1965	0.0839132	-0.196568	1.20613	0.0939848
409	4.07621	-0.249682	1.43651	0.0753521	-0.409904	1.3552	0.069234	-0.0338936	0.117543	0.188066	-0.337297	0.965001	0.240644	-0.418768	1.57878	0.133263	-0.430776	1.09032	0.370093	-0.499291	1.61178	0.0330381	-0.652154	0.842105	0.345571	-0.499277	0.945918	0.360248	0.0437882	0.0974836	0.13078	-0.253654	0.453779	0.22535	-0.206786	0.976108	0.0986902	-0.326474	1.42083	0.245728	-0.294337	0.640157	0.25312	-0.106636	0.251229	0.221954	-0.188567	0.0624068	0.134317	-0.382529	1.26571	0.340176	-0.590275	0.910261	0.297377	-0.560834	0.880821	0.356232	-0.54531	0.0969008	-0.0597007	-0.360087	0.967707	-0.075347	-0.188817	1.29573	-0.0351624	-0.310802	1.58234	0.0287362	-0.28987	1.06556	-0.190888	-0.401372	1.60641	-0.0526315	-0.333037	0.719955	-0.214821	-0.286615	0.977169	-0.200562	-0.472785	0.0559084	-0.00308418	-0.518684	0.503959	-0.0597887	-0.209435	0.96889	0.0355944	-0.316917	1.4079	-0.100623	-0.429994	0.81634	-0.0982354	-0.502479	0.375349	-0.0923109	-0.705418	0.0764079	0.000469191	-0.310897	1.16181	-0.178011	-0.339397	0.816926	-0.155918	-0.292955	0.80943	-0.211156	-0.443856	1.19723	0.0827753	-0.197748	1.20577	0.0912333
410	4.0862	-0.249987	1.4364	0.0728108	-0.410552	1.35576	0.0677468	-0.0291875	0.121059	0.188599	-0.338458	0.965107	0.2389	-0.417952	1.57938	0.131874	-0.427149	1.0895	0.367729	-0.499301	1.61257	0.0323405	-0.6423	0.835638	0.345772	-0.492182	0.943573	0.358879	0.0491656	0.102667	0.131108	-0.255341	0.453789	0.225472	-0.208628	0.976219	0.0960934	-0.32573	1.4211	0.243703	-0.295904	0.640365	0.252138	-0.104134	0.253917	0.221948	-0.18079	0.0623417	0.134373	-0.380791	1.26563	0.33834	-0.582612	0.905201	0.296809	-0.551906	0.876554	0.355591	-0.539705	0.0963012	-0.0600356	-0.362955	0.968423	-0.0766992	-0.190676	1.29542	-0.0383398	-0.310968	1.58239	0.0261908	-0.294784	1.06517	-0.19248	-0.402307	1.60671	-0.0542625	-0.342181	0.720042	-0.214819	-0.292583	0.976663	-0.201823	-0.466147	0.0566087	-0.00348615	-0.520713	0.503923	-0.0606197	-0.21184	0.969181	0.0328525	-0.318525	1.40803	-0.102699	-0.432969	0.816512	-0.0990648	-0.503774	0.374934	-0.0933297	-0.699481	0.0721974	0.000395756	-0.314833	1.16169	-0.179723	-0.346996	0.817264	-0.156234	-0.300992	0.808993	-0.211676	-0.445249	1.19805	0.0815288	-0.198997	1.20546	0.0883041
411	4.09619	-0.250281	1.43637	0.0702436	-0.411317	1.3564	0.0662517	-0.0250349	0.124863	0.189095	-0.33981	0.965295	0.237033	-0.417176	1.58007	0.130598	-0.423351	1.08867	0.365221	-0.499316	1.61353	0.0317408	-0.631722	0.82912	0.345991	-0.484689	0.941282	0.357477	0.0538863	0.108493	0.131369	-0.257775	0.45375	0.225722	-0.211007	0.976345	0.0935226	-0.324893	1.4214	0.241631	-0.298082	0.640583	0.251122	-0.102319	0.256745	0.222029	-0.173111	0.0622866	0.134419	-0.379	1.26562	0.33648	-0.574559	0.90013	0.296284	-0.542642	0.872474	0.355019	-0.533682	0.0958763	-0.0601224	-0.365951	0.969127	-0.0782427	-0.192439	1.29515	-0.0413806	-0.311185	1.58253	0.0236653	-0.299878	1.06493	-0.194105	-0.403266	1.60717	-0.0558864	-0.351719	0.720362	-0.214826	-0.298801	0.976419	-0.203218	-0.458954	0.0574266	-0.00374609	-0.522829	0.503671	-0.0614643	-0.214339	0.969592	0.0300841	-0.320349	1.40833	-0.10483	-0.435788	0.816708	-0.100121	-0.504946	0.374494	-0.0941683	-0.693339	0.0688164	0.000424656	-0.319136	1.16171	-0.181521	-0.354813	0.817856	-0.156576	-0.309334	0.808754	-0.212139	-0.446715	1.1989	0.0802134	-0.200318	1.2052	0.0852222
